<svg id="Layer_1" data-name="Layer 1" xmlns="http://www.w3.org/2000/svg" viewBox="0 0 58.5 46.93"><defs><style>.cls-1{fill:#b8c833;}</style></defs><title>Acceso_NoCliente</title><g id="_Grupo_" data-name="&lt;Grupo&gt;"><polygon class="cls-1" points="58.5 46.93 0 46.93 0 6.78 25.92 6.78 25.92 8.78 2 8.78 2 44.93 56.5 44.93 56.5 8.78 32.58 8.78 32.58 6.78 58.5 6.78 58.5 46.93"/><rect class="cls-1" x="32.41" y="24.86" width="19.22" height="2"/><rect class="cls-1" x="32.35" y="31.2" width="19.34" height="2"/><rect class="cls-1" x="32.35" y="37.54" width="19.34" height="2"/><path class="cls-1" d="M242.13,612.06h-8.66V599.27h8.66v12.79Zm-6.66-2h4.66v-8.79h-4.66v8.79Z" transform="translate(-208.55 -599.27)"/><g id="_Grupo_2" data-name="&lt;Grupo&gt;"><g id="_Grupo_3" data-name="&lt;Grupo&gt;"><g id="_Grupo_4" data-name="&lt;Grupo&gt;"><path class="cls-1" d="M232.94,639.3l-2-.07c0-.06.13-5.35-3.37-6.63a5.37,5.37,0,0,1-2,.38h-0.22a5.4,5.4,0,0,1-1.82-.31c-2,.81-3.09,3-3.35,6.64l-2-.14c0.33-4.69,2-7.56,5.06-8.52l0.36-.11,0.35,0.15a3.43,3.43,0,0,0,1.39.3h0.22a3.4,3.4,0,0,0,1.49-.34l0.34-.16,0.36,0.1C233.13,632.05,233,639,232.94,639.3Z" transform="translate(-208.55 -599.27)"/><path class="cls-1" d="M225.59,633h-0.22a5.41,5.41,0,0,1-2.21-.47,5.92,5.92,0,0,1-3.44-5.45,5.79,5.79,0,0,1,5.65-5.92h0.22a5.79,5.79,0,0,1,5.65,5.92,6,6,0,0,1-3.29,5.37A5.39,5.39,0,0,1,225.59,633Zm-0.22-9.83a3.79,3.79,0,0,0-3.65,3.92,3.92,3.92,0,0,0,2.26,3.62,3.42,3.42,0,0,0,1.39.3h0.22a3.4,3.4,0,0,0,1.49-.34,4,4,0,0,0,2.16-3.57,3.79,3.79,0,0,0-3.65-3.92h-0.22Z" transform="translate(-208.55 -599.27)"/></g></g><path class="cls-1" d="M235.9,639.31H215.24v-23H235.9v23Zm-18.67-2H233.9v-19H217.24v19Z" transform="translate(-208.55 -599.27)"/></g></g></svg>