<?xml version="1.0" encoding="utf-8"?>
<!-- Generator: Adobe Illustrator 21.0.2, SVG Export Plug-In . SVG Version: 6.00 Build 0)  -->
<svg version="1.1" id="Capa_1" xmlns="http://www.w3.org/2000/svg" xmlns:xlink="http://www.w3.org/1999/xlink" x="0px" y="0px"
	 viewBox="0 0 36 36" style="enable-background:new 0 0 36 36;" xml:space="preserve">
<style type="text/css">
	.st0{fill:#b9c800;}
</style>
<path class="st0" d="M35,12.5h-0.3V9.6c0-0.4-0.3-0.6-0.6-0.6H26c-0.4,0-0.6,0.3-0.6,0.6v3.5c0,0.4,0.3,0.6,0.6,0.6h0.3V16H26
	c-0.4,0-0.6,0.3-0.6,0.6v3.2L23.8,20v-2.8H24c0.4,0,0.6-0.3,0.6-0.7v-3.5c0-0.4-0.3-0.6-0.6-0.6h-8.2c-0.3,0-0.5,0.2-0.6,0.5
	l-1.4-0.8c-0.1-0.1-0.2-0.1-0.3-0.1L1,12.1c-0.4,0-0.7,0.3-0.7,0.7v9.3c0,0.4,0.3,0.7,0.7,0.7h7.7L20,27c0.1,0,0.2,0,0.2,0
	c0,0,0.1,0,0.1-0.1l13-3.5h0.1c1-0.4,1.5-1.4,1.4-2.4c0-0.2-0.1-0.5-0.2-0.7l0,0c0-0.1,0.1-0.2,0.1-0.3v-2.9H35
	c0.4,0,0.6-0.3,0.6-0.7v-3.5C35.6,12.7,35.4,12.5,35,12.5z M32.5,10.2h1v2.2h-1V10.2z M32.5,17.2h1v2c-0.3-0.2-0.7-0.2-1.1-0.2
	c0,0,0,0,0,0V17.2z M31.9,15.9h-1.8v-2.2h1.8V15.9z M29,10.2h2.3v2.2H29V10.2z M29,17.2h2.3v1.9L29,19.4V17.2z M26.6,10.2h1.1v2.2
	h-0.9h-0.3V10.2z M28.9,13.7v2.2h-1.4v-2.2H28.9z M26.6,17.2L26.6,17.2c0.1,0,0.2,0.1,0.3,0.1h0.9v2.2h-1.1V17.2z M22.2,13.7h1.2
	v2.2h-1.2V13.7z M21.4,17.2h1.2v2.2h-1.2V17.2z M19.1,15.2v-1.5H21v2.2h-1.1c0,0,0,0,0,0.1C20,16.1,19.4,15.4,19.1,15.2
	C19,15.1,19,15.1,19.1,15.2z M17.9,13.7v0.7l-1.3-0.7H17.9z M33,22.2l-12.8,3.4L9,21.5c-0.1,0-0.2,0-0.2,0H1.7l0.1,0v-8l11.7-0.1
	l4.1,2.3c0.9,0.4,1.6,1.1,1.9,2c0.3,0.7,0.3,1.4,0.1,2.1l-6.5-3c-0.3-0.1-0.7,0-0.9,0.3c-0.2,0.3,0,0.7,0.3,0.9l7.8,3.7
	c0.1,0.1,0.2,0.1,0.4,0.1l11.8-1.4c0.3,0,0.5,0,0.7,0.2c0.1,0.1,0.2,0.2,0.3,0.3C33.7,21.4,33.5,22,33,22.2z M34.4,15.9h-1.3v-2.2h1
	h0.3V15.9z"/>
</svg>
