<svg id="Layer_1" data-name="Layer 1" xmlns="http://www.w3.org/2000/svg" viewBox="0 0 57.89 54.66"><defs><style>.cls-1{fill:#b8c833;}</style></defs><title>Oficinas_Cajeros</title><g id="_Grupo_" data-name="&lt;Grupo&gt;"><path class="cls-1" d="M509.39,650.06H451.49V595.4h57.89v54.66Zm-55.89-2h53.89V597.4H453.49v50.66Z" transform="translate(-451.49 -595.4)"/><g id="_Grupo_2" data-name="&lt;Grupo&gt;"><path id="_Trazado_compuesto_" data-name="&lt;Trazado compuesto&gt;" class="cls-1" d="M495.79,629.49c0,6.59-4.82,10.93-14.14,10.93a21.36,21.36,0,0,1-9.35-2.14l-4.61,1.9V607.1A39,39,0,0,1,478,605.5c7.54,0,11.94,3.62,11.94,8.67a7.13,7.13,0,0,1-2.08,5.11c5,1.13,7.9,4.93,7.9,10.21m-22.16,4.15a16.32,16.32,0,0,0,7.73,1.84c5.58,0,8.26-2.49,8.26-6.53s-2.73-6.59-9.57-7c2.85-2.08,4.16-4.46,4.16-6.59,0-2.55-1.72-5-6.18-5a15.47,15.47,0,0,0-4.4.65v22.62Z" transform="translate(-451.49 -595.4)"/></g></g></svg>